<?xml version="1.0" standalone="no"?><svg xmlns="http://www.w3.org/2000/svg" viewBox="0 0 1440 320"><path fill="#0099ff" fill-opacity="1" d="M0,320L14.1,293.3C28.2,267,56,213,85,160C112.9,107,141,53,169,42.7C197.6,32,226,64,254,96C282.4,128,311,160,339,149.3C367.1,139,395,85,424,106.7C451.8,128,480,224,508,224C536.5,224,565,128,593,85.3C621.2,43,649,53,678,96C705.9,139,734,213,762,218.7C790.6,224,819,160,847,122.7C875.3,85,904,75,932,85.3C960,96,988,128,1016,128C1044.7,128,1073,96,1101,112C1129.4,128,1158,192,1186,208C1214.1,224,1242,192,1271,186.7C1298.8,181,1327,203,1355,202.7C1383.5,203,1412,181,1426,170.7L1440,160L1440,0L1425.9,0C1411.8,0,1384,0,1355,0C1327.1,0,1299,0,1271,0C1242.4,0,1214,0,1186,0C1157.6,0,1129,0,1101,0C1072.9,0,1045,0,1016,0C988.2,0,960,0,932,0C903.5,0,875,0,847,0C818.8,0,791,0,762,0C734.1,0,706,0,678,0C649.4,0,621,0,593,0C564.7,0,536,0,508,0C480,0,452,0,424,0C395.3,0,367,0,339,0C310.6,0,282,0,254,0C225.9,0,198,0,169,0C141.2,0,113,0,85,0C56.5,0,28,0,14,0L0,0Z"></path></svg>